<svg width="68" height="68" viewBox="0 0 68 68" fill="none" xmlns="http://www.w3.org/2000/svg">
<circle cx="34" cy="34" r="34" fill="white"/>
<g clip-path="url(#clip0_605_15)">
<path d="M35 10C21.7453 10 11 20.7453 11 34C11 45.255 18.7491 54.6995 29.2026 57.2934V41.3344H24.2538V34H29.2026V30.8397C29.2026 22.671 32.8995 18.8848 40.9194 18.8848C42.44 18.8848 45.0637 19.1834 46.137 19.481V26.129C45.5706 26.0694 44.5866 26.0397 43.3645 26.0397C39.4294 26.0397 37.9088 27.5306 37.9088 31.4061V34H45.7482L44.4013 41.3344H37.9088V57.8243C49.7926 56.3891 59.001 46.2707 59.001 34C59 20.7453 48.2547 10 35 10Z" fill="#282828"/>
</g>
<defs>
<clipPath id="clip0_605_15">
<rect width="48" height="48" fill="white" transform="translate(11 10)"/>
</clipPath>
</defs>
</svg>
