<svg width="68" height="68" viewBox="0 0 68 68" fill="none" xmlns="http://www.w3.org/2000/svg">
<circle cx="34" cy="34" r="34" fill="white"/>
<g clip-path="url(#clip0_605_9)">
<path d="M34 15.4153C40.0562 15.4153 40.7734 15.4418 43.1552 15.5481C45.3687 15.6455 46.5641 16.0174 47.3609 16.3272C48.4146 16.7345 49.176 17.2304 49.9641 18.0184C50.7609 18.8153 51.2479 19.5679 51.6552 20.6215C51.9651 21.4184 52.337 22.6226 52.4344 24.8272C52.5406 27.2179 52.5672 27.9351 52.5672 33.9825C52.5672 40.0387 52.5406 40.7559 52.4344 43.1377C52.337 45.3512 51.9651 46.5465 51.6552 47.3434C51.2479 48.397 50.7521 49.1585 49.9641 49.9465C49.1672 50.7434 48.4146 51.2304 47.3609 51.6377C46.5641 51.9476 45.3599 52.3194 43.1552 52.4168C40.7646 52.5231 40.0474 52.5496 34 52.5496C27.9437 52.5496 27.2266 52.5231 24.8448 52.4168C22.6312 52.3194 21.4359 51.9476 20.6391 51.6377C19.5854 51.2304 18.824 50.7345 18.0359 49.9465C17.2391 49.1496 16.7521 48.397 16.3448 47.3434C16.0349 46.5465 15.663 45.3424 15.5656 43.1377C15.4594 40.747 15.4328 40.0299 15.4328 33.9825C15.4328 27.9262 15.4594 27.209 15.5656 24.8272C15.663 22.6137 16.0349 21.4184 16.3448 20.6215C16.7521 19.5679 17.2479 18.8064 18.0359 18.0184C18.8328 17.2215 19.5854 16.7345 20.6391 16.3272C21.4359 16.0174 22.6401 15.6455 24.8448 15.5481C27.2266 15.4418 27.9437 15.4153 34 15.4153ZM34 11.3335C27.8464 11.3335 27.076 11.3601 24.6589 11.4663C22.2505 11.5726 20.5948 11.9621 19.1604 12.52C17.6641 13.1043 16.3979 13.8746 15.1406 15.1408C13.8745 16.3981 13.1042 17.6642 12.5198 19.1517C11.962 20.595 11.5724 22.2418 11.4661 24.6502C11.3599 27.0762 11.3333 27.8465 11.3333 34.0002C11.3333 40.1538 11.3599 40.9241 11.4661 43.3413C11.5724 45.7496 11.962 47.4054 12.5198 48.8397C13.1042 50.3361 13.8745 51.6022 15.1406 52.8595C16.3979 54.1168 17.6641 54.896 19.1516 55.4715C20.5948 56.0293 22.2417 56.4189 24.65 56.5252C27.0672 56.6314 27.8375 56.658 33.9911 56.658C40.1448 56.658 40.9151 56.6314 43.3323 56.5252C45.7406 56.4189 47.3964 56.0293 48.8307 55.4715C50.3182 54.896 51.5844 54.1168 52.8417 52.8595C54.099 51.6022 54.8781 50.3361 55.4536 48.8486C56.0115 47.4054 56.401 45.7585 56.5073 43.3502C56.6135 40.933 56.6401 40.1627 56.6401 34.009C56.6401 27.8554 56.6135 27.0851 56.5073 24.6679C56.401 22.2595 56.0115 20.6038 55.4536 19.1694C54.8958 17.6642 54.1255 16.3981 52.8594 15.1408C51.6021 13.8835 50.3359 13.1043 48.8484 12.5288C47.4052 11.971 45.7583 11.5814 43.35 11.4752C40.924 11.3601 40.1536 11.3335 34 11.3335Z" fill="#282828"/>
<path d="M34 22.3569C27.5719 22.3569 22.3568 27.572 22.3568 34.0002C22.3568 40.4283 27.5719 45.6434 34 45.6434C40.4281 45.6434 45.6432 40.4283 45.6432 34.0002C45.6432 27.572 40.4281 22.3569 34 22.3569ZM34 41.5528C29.8297 41.5528 26.4474 38.1705 26.4474 34.0002C26.4474 29.8299 29.8297 26.4476 34 26.4476C38.1703 26.4476 41.5526 29.8299 41.5526 34.0002C41.5526 38.1705 38.1703 41.5528 34 41.5528Z" fill="#282828"/>
<path d="M48.8219 21.8965C48.8219 23.4017 47.6 24.6147 46.1036 24.6147C44.5984 24.6147 43.3854 23.3928 43.3854 21.8965C43.3854 20.3912 44.6073 19.1782 46.1036 19.1782C47.6 19.1782 48.8219 20.4001 48.8219 21.8965Z" fill="#282828"/>
</g>
<defs>
<clipPath id="clip0_605_9">
<rect width="45.3333" height="45.3333" fill="white" transform="translate(11.3333 11.3335)"/>
</clipPath>
</defs>
</svg>
