<svg width="68" height="68" viewBox="0 0 68 68" fill="none" xmlns="http://www.w3.org/2000/svg">
<circle cx="34" cy="34" r="34" fill="white"/>
<g clip-path="url(#clip0_605_23)">
<path d="M51.891 13H16.1008C14.3863 13 13 14.3535 13 16.027V51.9648C13 53.6383 14.3863 55 16.1008 55H51.891C53.6055 55 55 53.6383 55 51.973V16.027C55 14.3535 53.6055 13 51.891 13ZM25.4605 48.7902H19.2262V28.7418H25.4605V48.7902ZM22.3434 26.0102C20.3418 26.0102 18.7258 24.3941 18.7258 22.4008C18.7258 20.4074 20.3418 18.7914 22.3434 18.7914C24.3367 18.7914 25.9527 20.4074 25.9527 22.4008C25.9527 24.3859 24.3367 26.0102 22.3434 26.0102ZM48.7902 48.7902H42.5641V39.0449C42.5641 36.7234 42.523 33.7293 39.3238 33.7293C36.0836 33.7293 35.5914 36.2641 35.5914 38.8809V48.7902H29.3734V28.7418H35.3453V31.4816H35.4273C36.2559 29.9066 38.2902 28.2414 41.3172 28.2414C47.6254 28.2414 48.7902 32.3922 48.7902 37.7898V48.7902Z" fill="#282828"/>
</g>
<defs>
<clipPath id="clip0_605_23">
<rect width="42" height="42" fill="white" transform="translate(13 13)"/>
</clipPath>
</defs>
</svg>
