<svg width="39" height="39" viewBox="0 0 39 39" fill="none" xmlns="http://www.w3.org/2000/svg">
<path d="M38.5 18.4706C38.5 19.299 37.8284 19.9706 37 19.9706C36.1716 19.9706 35.5 19.299 35.5 18.4706H38.5ZM37 2V0.5H38.5V2H37ZM20.5294 3.5C19.701 3.5 19.0294 2.82843 19.0294 2C19.0294 1.17157 19.701 0.5 20.5294 0.5V3.5ZM17.4724 23.6489C16.8866 24.2347 15.9369 24.2347 15.3511 23.6489C14.7653 23.0631 14.7653 22.1134 15.3511 21.5276L17.4724 23.6489ZM2.82749 7.14706L4.12653 7.89706L4.12653 7.89706L2.82749 7.14706ZM12.2941 2.55882C13.1225 2.55882 13.7941 3.2304 13.7941 4.05882C13.7941 4.88725 13.1225 5.55882 12.2941 5.55882V2.55882ZM5.08823 4.88631L4.33823 3.58728V3.58728L5.08823 4.88631ZM3.80904 35.191L2.74839 36.2516L2.74838 36.2516L3.80904 35.191ZM33.4412 26.7059C33.4412 25.8775 34.1127 25.2059 34.9412 25.2059C35.7696 25.2059 36.4412 25.8775 36.4412 26.7059H33.4412ZM34.1137 33.9118L35.4127 34.6618H35.4127L34.1137 33.9118ZM31.8529 36.1725L31.1029 34.8735L31.1029 34.8735L31.8529 36.1725ZM35.5 18.4706V2H38.5V18.4706H35.5ZM37 3.5H20.5294V0.5H37V3.5ZM38.0607 3.06066L17.4724 23.6489L15.3511 21.5276L35.9393 0.93934L38.0607 3.06066ZM24.6471 38.5H14.3529V35.5H24.6471V38.5ZM0.5 24.6471V14.3529H3.5V24.6471H0.5ZM0.5 14.3529C0.5 12.4563 0.498562 10.9336 0.609558 9.70892C0.722424 8.46362 0.96093 7.38004 1.52845 6.39706L4.12653 7.89706C3.86656 8.34734 3.69132 8.94249 3.59731 9.97971C3.50144 11.0376 3.5 12.4011 3.5 14.3529H0.5ZM12.2941 5.55882C10.3423 5.55882 8.97873 5.56026 7.92089 5.65614C6.88366 5.75014 6.28851 5.92538 5.83823 6.18535L4.33823 3.58728C5.32121 3.01975 6.40479 2.78125 7.65009 2.66838C8.87477 2.55739 10.3975 2.55882 12.2941 2.55882V5.55882ZM1.52845 6.39706C2.2022 5.23009 3.17126 4.26103 4.33823 3.58728L5.83823 6.18535C5.12732 6.5958 4.53697 7.18615 4.12653 7.89706L1.52845 6.39706ZM14.3529 38.5C11.4837 38.5 9.18092 38.5032 7.3758 38.2605C5.52753 38.012 3.97806 37.4813 2.74839 36.2516L4.8697 34.1303C5.44907 34.7097 6.25994 35.0835 7.77554 35.2872C9.3343 35.4968 11.3989 35.5 14.3529 35.5V38.5ZM3.5 24.6471C3.5 27.6011 3.50319 29.6657 3.71275 31.2245C3.91652 32.7401 4.29034 33.5509 4.86971 34.1303L2.74838 36.2516C1.51871 35.0219 0.987999 33.4725 0.739506 31.6242C0.496815 29.8191 0.5 27.5163 0.5 24.6471H3.5ZM36.4412 26.7059C36.4412 28.6025 36.4426 30.1252 36.3316 31.3499C36.2188 32.5952 35.9802 33.6788 35.4127 34.6618L32.8146 33.1618C33.0746 32.7115 33.2499 32.1163 33.3439 31.0791C33.4397 30.0213 33.4412 28.6577 33.4412 26.7059H36.4412ZM24.6471 35.5C26.5989 35.5 27.9624 35.4986 29.0203 35.4027C30.0575 35.3087 30.6527 35.1334 31.1029 34.8735L32.6029 37.4715C31.62 38.0391 30.5364 38.2776 29.2911 38.3904C28.0664 38.5014 26.5437 38.5 24.6471 38.5V35.5ZM35.4127 34.6618C34.739 35.8287 33.7699 36.7978 32.6029 37.4715L31.1029 34.8735C31.8139 34.463 32.4042 33.8727 32.8146 33.1618L35.4127 34.6618Z" fill="#222222"/>
</svg>
