<svg width="44" height="44" viewBox="0 0 44 44" fill="none" xmlns="http://www.w3.org/2000/svg">
<path d="M2 22C2 24.0709 2 25.1063 2.33831 25.923C2.7894 27.0121 3.65462 27.8773 4.74363 28.3284C5.56039 28.6667 6.59582 28.6667 8.66667 28.6667H10.1677C11.4588 28.6667 12.1044 28.6667 12.6197 28.9639C12.7499 29.039 12.8721 29.1271 12.9845 29.2268C13.4295 29.6218 13.6336 30.2342 14.0419 31.4591L14.3203 32.2943C14.8092 33.7611 15.0537 34.4944 15.6357 34.9139C16.2176 35.3333 16.9907 35.3333 18.5367 35.3333H25.4633C27.0093 35.3333 27.7824 35.3333 28.3643 34.9139C28.9463 34.4944 29.1908 33.7611 29.6797 32.2943L29.9581 31.4591C30.3664 30.2342 30.5705 29.6217 31.0155 29.2268C31.1279 29.1271 31.2501 29.039 31.3803 28.9639C31.8956 28.6667 32.5412 28.6667 33.8323 28.6667H35.3333C37.4042 28.6667 38.4396 28.6667 39.2564 28.3284C40.3454 27.8773 41.2106 27.0121 41.6617 25.923C42 25.1063 42 24.0709 42 22M16.4444 18.6667L22 24.2222M22 24.2222L27.5556 18.6667M22 24.2222L22 8.66667M10.8889 42H33.1111C37.3014 42 39.3965 42 40.6983 40.6983C42 39.3965 42 37.3014 42 33.1111V10.8889C42 6.69863 42 4.6035 40.6983 3.30175C39.3965 2 37.3014 2 33.1111 2H10.8889C6.69863 2 4.6035 2 3.30175 3.30175C2 4.6035 2 6.69863 2 10.8889V33.1111C2 37.3014 2 39.3965 3.30175 40.6983C4.6035 42 6.69863 42 10.8889 42Z" stroke="#222222" stroke-width="3" stroke-linecap="round" stroke-linejoin="round"/>
</svg>
