<svg width="39" height="43" viewBox="0 0 39 43" fill="none" xmlns="http://www.w3.org/2000/svg">
<path d="M32.0875 42.5C30.3758 42.5 28.9207 41.9009 27.7222 40.7028C26.5241 39.5043 25.925 38.0492 25.925 36.3375C25.925 36.0779 26.0017 35.5112 26.155 34.6375L10.5894 25.5356C10.0164 26.1221 9.35372 26.5814 8.60147 26.9137C7.84922 27.2462 7.03623 27.4125 6.1625 27.4125C4.45081 27.4125 2.99572 26.8134 1.79722 25.6153C0.599073 24.4168 0 22.9617 0 21.25C0 19.5383 0.599073 18.0832 1.79722 16.8847C2.99572 15.6866 4.45081 15.0875 6.1625 15.0875C7.0125 15.0875 7.80938 15.2474 8.55313 15.5672C9.29688 15.887 9.95208 16.3292 10.5188 16.8938L26.155 7.8625C26.0842 7.59085 26.0282 7.31638 25.9872 7.03906C25.9457 6.76175 25.925 6.46956 25.925 6.1625C25.925 4.45081 26.5241 2.99572 27.7222 1.79722C28.9207 0.599074 30.3758 0 32.0875 0C33.7992 0 35.2543 0.599074 36.4528 1.79722C37.6509 2.99572 38.25 4.45081 38.25 6.1625C38.25 7.87419 37.6509 9.32928 36.4528 10.5278C35.2543 11.7259 33.7992 12.325 32.0875 12.325C31.2545 12.325 30.4737 12.1686 29.7452 11.8559C29.0163 11.5428 28.3686 11.1207 27.8019 10.5894L12.0594 19.4793C12.1539 19.7506 12.2218 20.0368 12.2628 20.3378C12.3043 20.6389 12.325 20.9371 12.325 21.2325C12.325 21.5275 12.3103 21.802 12.2809 22.0559C12.2512 22.3095 12.2009 22.5721 12.13 22.8438L27.8375 31.875C28.4042 31.3438 29.0488 30.9276 29.7713 30.6266C30.4934 30.3255 31.2672 30.175 32.0928 30.175C33.813 30.175 35.2692 30.7741 36.4613 31.9722C37.6538 33.1707 38.25 34.6258 38.25 36.3375C38.25 38.0492 37.6509 39.5043 36.4528 40.7028C35.2543 41.9009 33.7992 42.5 32.0875 42.5ZM32.0886 38.9582C32.8316 38.9582 33.4541 38.7069 33.9559 38.2043C34.4574 37.7018 34.7082 37.0791 34.7082 36.3364C34.7082 35.5934 34.4569 34.971 33.9543 34.4691C33.4518 33.9676 32.8291 33.7168 32.0864 33.7168C31.3434 33.7168 30.7209 33.9681 30.2191 34.4707C29.7176 34.9733 29.4668 35.5959 29.4668 36.3386C29.4668 37.0816 29.7181 37.7041 30.2207 38.2059C30.7233 38.7074 31.3459 38.9582 32.0886 38.9582ZM6.16356 23.8707C6.9066 23.8707 7.52905 23.6194 8.03091 23.1168C8.53241 22.6143 8.78316 21.9916 8.78316 21.2489C8.78316 20.5059 8.53188 19.8834 8.02931 19.3816C7.52675 18.8801 6.90413 18.6293 6.16144 18.6293C5.4184 18.6293 4.79595 18.8806 4.29409 19.3832C3.79259 19.8857 3.54184 20.5084 3.54184 21.2511C3.54184 21.9941 3.79313 22.6166 4.29569 23.1184C4.79825 23.6199 5.42088 23.8707 6.16356 23.8707ZM32.0886 8.78316C32.8316 8.78316 33.4541 8.53188 33.9559 8.02931C34.4574 7.52675 34.7082 6.90412 34.7082 6.16144C34.7082 5.4184 34.4569 4.79595 33.9543 4.2941C33.4518 3.79259 32.8291 3.54184 32.0864 3.54184C31.3434 3.54184 30.7209 3.79312 30.2191 4.29569C29.7176 4.79825 29.4668 5.42088 29.4668 6.16356C29.4668 6.90661 29.7181 7.52905 30.2207 8.03091C30.7233 8.53241 31.3459 8.78316 32.0886 8.78316Z" fill="black"/>
</svg>
