<svg width="68" height="68" viewBox="0 0 68 68" fill="none" xmlns="http://www.w3.org/2000/svg">
<circle cx="34" cy="34" r="34" fill="white"/>
<g clip-path="url(#clip0_605_19)">
<path d="M57.8818 24.4001C57.8818 24.4001 57.4391 21.0907 56.0755 19.6376C54.349 17.7251 52.4188 17.7157 51.5333 17.6032C45.1938 17.1157 35.6755 17.1157 35.6755 17.1157H35.6578C35.6578 17.1157 26.1396 17.1157 19.8 17.6032C18.9146 17.7157 16.9844 17.7251 15.2578 19.6376C13.8943 21.0907 13.4604 24.4001 13.4604 24.4001C13.4604 24.4001 13 28.2907 13 32.172V35.8095C13 39.6907 13.4516 43.5813 13.4516 43.5813C13.4516 43.5813 13.8943 46.8907 15.249 48.3438C16.9755 50.2563 19.2422 50.1907 20.2516 50.397C23.8818 50.7626 35.6667 50.8751 35.6667 50.8751C35.6667 50.8751 45.1938 50.8563 51.5333 50.3782C52.4188 50.2657 54.349 50.2563 56.0755 48.3438C57.4391 46.8907 57.8818 43.5813 57.8818 43.5813C57.8818 43.5813 58.3333 39.7001 58.3333 35.8095V32.172C58.3333 28.2907 57.8818 24.4001 57.8818 24.4001ZM30.9828 40.2251V26.7345L43.2281 33.5032L30.9828 40.2251Z" fill="#282828"/>
</g>
<defs>
<clipPath id="clip0_605_19">
<rect width="45.3333" height="48" fill="white" transform="translate(13 10)"/>
</clipPath>
</defs>
</svg>
